{
  "title": "Run.All.Night.2015.720p.HC.WEBRip.XviD.MP3-RARBG",
  "uid": 11897169,
  "size": 2994475565,
  "categoryP": "video",
  "categoryS": "movies",
  "magnet": "?xt=urn:btih:9d63bf81850c434d3ba05591b8ae50e6063ff08f&amp;dn=Run.All.Night.2015.720p.HC.WEBRip.XviD.MP3-RARBG&amp;tr=udp%3A%2F%2Ftracker.openbittorrent.com%3A80&amp;tr=udp%3A%2F%2Fopen.demonii.com%3A1337&amp;tr=udp%3A%2F%2Ftracker.coppersurfer.tk%3A6969&amp;tr=udp%3A%2F%2Fexodus.desync.com%3A6969",
  "seeders": 65,
  "leechers": 1,
  "uploader": "vickey1992",
  "files": 4,
  "time": 1431197428,
  "description": "Format                                   : AVI\nFormat/Info                              : Audio Video Interleave\nFormat profile                           : OpenDML\nFile size                                : 2.79 GiB\nDuration                                 : 1h 54mn\nOverall bit rate                         : 3 492 Kbps\nMovie name                               : RARBG.COM - Run.All.Night.2015.720p.HC.WEBRip.XviD.MP3-RARBG\nWriting library                          : VirtualDub build 35491/release\nComment                                  : RARBG.COM - Run.All.Night.2015.720p.HC.WEBRip.XviD.MP3-RARBG\n\nVideo\nID                                       : 0\nFormat                                   : MPEG-4 Visual\nFormat profile                           : Simple@L5\nFormat settings, BVOP                    : No\nFormat settings, QPel                    : No\nFormat settings, GMC                     : No warppoints\nFormat settings, Matrix                  : Default (H.263)\nCodec ID                                 : XVID\nCodec ID/Hint                            : XviD\nDuration                                 : 1h 54mn\nBit rate                                 : 3 285 Kbps\nWidth                                    : 1 280 pixels\nHeight                                   : 532 pixels\nDisplay aspect ratio                     : 2.40:1\nFrame rate                               : 23.976 fps\nColor space                              : YUV\nChroma subsampling                       : 4:2:0\nBit depth                                : 8 bits\nScan type                                : Progressive\nCompression mode                         : Lossy\nBits/(Pixel*Frame)                       : 0.201\nStream size                              : 2.62 GiB (94%)\nWriting library                          : Lavc56.13.100\n\nAudio\nID                                       : 1\nFormat                                   : MPEG Audio\nFormat version                           : Version 1\nFormat profile                           : Layer 3\nMode                                     : Joint stereo\nMode extension                           : MS Stereo\nCodec ID                                 : 55\nCodec ID/Hint                            : MP3\nDuration                                 : 1h 54mn\nBit rate mode                            : Constant\nBit rate                                 : 192 Kbps\nChannel(s)                               : 2 channels\nSampling rate                            : 48.0 KHz\nCompression mode                         : Lossy\nStream size                              : 157 MiB (5%)\nAlignment                                : Aligned on interleaves\nInterleave, duration                     : 24 ms (0.58 video frame)\nInterleave, preload duration             : 504 ms\nWriting library                          : LAME3.99.5\nNotes:\nHardcoded Chinese subtitles.\nGreetz to all!",
  "parsed": {
    "xt": "urn:btih:9d63bf81850c434d3ba05591b8ae50e6063ff08f",
    "dn": "Run.All.Night.2015.720p.HC.WEBRip.XviD.MP3-RARBG",
    "tr": [
      "udp://exodus.desync.com:6969",
      "udp://open.demonii.com:1337",
      "udp://tracker.coppersurfer.tk:6969",
      "udp://tracker.openbittorrent.com:80"
    ],
    "infoHash": "9d63bf81850c434d3ba05591b8ae50e6063ff08f",
    "infoHashBuffer": {
      "type": "Buffer",
      "data": [
        157,
        99,
        191,
        129,
        133,
        12,
        67,
        77,
        59,
        160,
        85,
        145,
        184,
        174,
        80,
        230,
        6,
        63,
        240,
        143
      ]
    },
    "name": "Run.All.Night.2015.720p.HC.WEBRip.XviD.MP3-RARBG",
    "announce": [
      "udp://exodus.desync.com:6969",
      "udp://open.demonii.com:1337",
      "udp://tracker.coppersurfer.tk:6969",
      "udp://tracker.openbittorrent.com:80"
    ],
    "urlList": []
  },
  "previous": 2,
  "peers": 3,
  "last_updated": "2016-12-27T08:22:17.177Z"
}